<svg width="191" height="40" viewBox="0 0 191 40" fill="none" xmlns="http://www.w3.org/2000/svg">
<path d="M46.32 30.5V10.403H59.892V14.202H50.844V18.146H58.877V21.858H50.844V26.701H60.559V30.5H46.32ZM63.1169 15.768C63.8516 15.5553 64.7989 15.362 65.9589 15.188C67.1189 14.9947 68.3369 14.898 69.6129 14.898C70.9082 14.898 71.9812 15.072 72.8319 15.42C73.7019 15.7487 74.3882 16.2223 74.8909 16.841C75.3936 17.4597 75.7512 18.1943 75.9639 19.045C76.1766 19.8957 76.2829 20.843 76.2829 21.887V30.5H71.9619V22.409C71.9619 21.017 71.7782 20.031 71.4109 19.451C71.0436 18.871 70.3572 18.581 69.3519 18.581C69.0426 18.581 68.7139 18.6003 68.3659 18.639C68.0179 18.6583 67.7086 18.6873 67.4379 18.726V30.5H63.1169V15.768ZM79.5491 11.447L83.8701 10.751V15.246H89.0611V18.842H83.8701V24.207C83.8701 25.1157 84.0247 25.8407 84.3341 26.382C84.6627 26.9233 85.3104 27.194 86.2771 27.194C86.7411 27.194 87.2147 27.1553 87.6981 27.078C88.2007 26.9813 88.6551 26.8557 89.0611 26.701L89.6701 30.065C89.1481 30.2777 88.5681 30.4613 87.9301 30.616C87.2921 30.7707 86.5091 30.848 85.5811 30.848C84.4017 30.848 83.4254 30.6933 82.6521 30.384C81.8787 30.0553 81.2601 29.6107 80.7961 29.05C80.3321 28.47 80.0034 27.774 79.8101 26.962C79.6361 26.15 79.5491 25.251 79.5491 24.265V11.447ZM101.273 19.074C100.886 18.9773 100.432 18.8807 99.9098 18.784C99.3878 18.668 98.8271 18.61 98.2278 18.61C97.9571 18.61 97.6285 18.639 97.2418 18.697C96.8745 18.7357 96.5941 18.784 96.4008 18.842V30.5H92.0798V16.058C92.8531 15.7873 93.7618 15.536 94.8058 15.304C95.8691 15.0527 97.0485 14.927 98.3438 14.927C98.5758 14.927 98.8561 14.9463 99.1848 14.985C99.5135 15.0043 99.8421 15.043 100.171 15.101C100.499 15.1397 100.828 15.1977 101.157 15.275C101.485 15.333 101.766 15.4103 101.998 15.507L101.273 19.074ZM118.263 15.246C117.393 18.1847 116.485 20.9397 115.537 23.511C114.59 26.0823 113.556 28.5763 112.434 30.993C112.028 31.863 111.622 32.5977 111.216 33.197C110.81 33.8157 110.366 34.3183 109.882 34.705C109.399 35.111 108.848 35.401 108.229 35.575C107.63 35.7683 106.924 35.865 106.112 35.865C105.436 35.865 104.807 35.7973 104.227 35.662C103.667 35.546 103.203 35.4107 102.835 35.256L103.589 31.805C104.034 31.9597 104.43 32.066 104.778 32.124C105.126 32.182 105.494 32.211 105.88 32.211C106.654 32.211 107.243 31.9983 107.649 31.573C108.075 31.167 108.432 30.5967 108.722 29.862C107.736 27.9287 106.75 25.7633 105.764 23.366C104.778 20.9493 103.85 18.2427 102.98 15.246H107.562C107.756 16 107.978 16.8217 108.229 17.711C108.5 18.581 108.78 19.4703 109.07 20.379C109.36 21.2683 109.65 22.1383 109.94 22.989C110.25 23.8397 110.54 24.613 110.81 25.309C111.062 24.613 111.323 23.8397 111.593 22.989C111.864 22.1383 112.125 21.2683 112.376 20.379C112.647 19.4703 112.898 18.581 113.13 17.711C113.382 16.8217 113.604 16 113.797 15.246H118.263ZM133.797 26.614V30.5H120.37V10.403H124.894V26.614H133.797ZM135.196 22.989C135.196 21.6357 135.399 20.4563 135.805 19.451C136.23 18.4263 136.781 17.5757 137.458 16.899C138.134 16.2223 138.908 15.71 139.778 15.362C140.667 15.014 141.576 14.84 142.504 14.84C144.669 14.84 146.38 15.507 147.637 16.841C148.893 18.1557 149.522 20.0987 149.522 22.67C149.522 22.9213 149.512 23.2017 149.493 23.511C149.473 23.801 149.454 24.062 149.435 24.294H139.633C139.729 25.1833 140.145 25.889 140.88 26.411C141.614 26.933 142.6 27.194 143.838 27.194C144.63 27.194 145.404 27.1263 146.158 26.991C146.931 26.8363 147.559 26.6527 148.043 26.44L148.623 29.949C148.391 30.065 148.081 30.181 147.695 30.297C147.308 30.413 146.873 30.5097 146.39 30.587C145.926 30.6837 145.423 30.761 144.882 30.819C144.34 30.877 143.799 30.906 143.258 30.906C141.885 30.906 140.686 30.703 139.662 30.297C138.656 29.891 137.815 29.34 137.139 28.644C136.481 27.9287 135.988 27.0877 135.66 26.121C135.35 25.1543 135.196 24.1103 135.196 22.989ZM145.346 21.336C145.326 20.9687 145.259 20.611 145.143 20.263C145.046 19.915 144.882 19.6057 144.65 19.335C144.437 19.0643 144.157 18.842 143.809 18.668C143.48 18.494 143.064 18.407 142.562 18.407C142.078 18.407 141.663 18.494 141.315 18.668C140.967 18.8227 140.677 19.0353 140.445 19.306C140.213 19.5767 140.029 19.8957 139.894 20.263C139.778 20.611 139.691 20.9687 139.633 21.336H145.346ZM156.503 30.5C155.517 28.5667 154.512 26.3047 153.487 23.714C152.482 21.1233 151.525 18.3007 150.616 15.246H155.198C155.392 16 155.614 16.8217 155.865 17.711C156.136 18.581 156.407 19.4703 156.677 20.379C156.967 21.2683 157.248 22.1383 157.518 22.989C157.808 23.8397 158.089 24.613 158.359 25.309C158.611 24.613 158.881 23.8397 159.171 22.989C159.461 22.1383 159.742 21.2683 160.012 20.379C160.302 19.4703 160.573 18.581 160.824 17.711C161.095 16.8217 161.327 16 161.52 15.246H165.986C165.078 18.3007 164.111 21.1233 163.086 23.714C162.081 26.3047 161.085 28.5667 160.099 30.5H156.503ZM166.679 22.989C166.679 21.6357 166.882 20.4563 167.288 19.451C167.713 18.4263 168.264 17.5757 168.941 16.899C169.618 16.2223 170.391 15.71 171.261 15.362C172.15 15.014 173.059 14.84 173.987 14.84C176.152 14.84 177.863 15.507 179.12 16.841C180.377 18.1557 181.005 20.0987 181.005 22.67C181.005 22.9213 180.995 23.2017 180.976 23.511C180.957 23.801 180.937 24.062 180.918 24.294H171.116C171.213 25.1833 171.628 25.889 172.363 26.411C173.098 26.933 174.084 27.194 175.321 27.194C176.114 27.194 176.887 27.1263 177.641 26.991C178.414 26.8363 179.043 26.6527 179.526 26.44L180.106 29.949C179.874 30.065 179.565 30.181 179.178 30.297C178.791 30.413 178.356 30.5097 177.873 30.587C177.409 30.6837 176.906 30.761 176.365 30.819C175.824 30.877 175.282 30.906 174.741 30.906C173.368 30.906 172.17 30.703 171.145 30.297C170.14 29.891 169.299 29.34 168.622 28.644C167.965 27.9287 167.472 27.0877 167.143 26.121C166.834 25.1543 166.679 24.1103 166.679 22.989ZM176.829 21.336C176.81 20.9687 176.742 20.611 176.626 20.263C176.529 19.915 176.365 19.6057 176.133 19.335C175.92 19.0643 175.64 18.842 175.292 18.668C174.963 18.494 174.548 18.407 174.045 18.407C173.562 18.407 173.146 18.494 172.798 18.668C172.45 18.8227 172.16 19.0353 171.928 19.306C171.696 19.5767 171.512 19.8957 171.377 20.263C171.261 20.611 171.174 20.9687 171.116 21.336H176.829ZM189.93 30.79C188.673 30.7707 187.648 30.6353 186.856 30.384C186.082 30.1327 185.464 29.7847 185 29.34C184.555 28.876 184.246 28.325 184.072 27.687C183.917 27.0297 183.84 26.295 183.84 25.483V8.692L188.161 7.996V24.613C188.161 24.9997 188.19 25.3477 188.248 25.657C188.306 25.9663 188.412 26.2273 188.567 26.44C188.741 26.6527 188.982 26.8267 189.292 26.962C189.601 27.0973 190.017 27.1843 190.539 27.223L189.93 30.79Z" fill="#F26958"/>
<path d="M3.67383 21.3978C1.74083 18.0498 2.88796 13.7686 6.23601 11.8356L19.736 35.2183C16.388 37.1513 12.1068 36.0042 10.1738 32.6562L3.67383 21.3978Z" fill="#FBD2CD"/>
<path fill-rule="evenodd" clip-rule="evenodd" d="M32.0005 20.8004L32.0005 28.5394L19.6646 35.6615C16.459 37.5122 12.36 36.4139 10.5093 33.2083L32.0005 20.8004ZM29.0028 10.5841L32.0005 12.3148L32.0005 16.3987L8.71162 30.0945L5.36054 24.2902L29.0028 10.5841ZM18.7534 4.6666L25.4556 8.5361L3.56202 21.1764C1.71127 17.9708 2.8096 13.8718 6.0152 12.021L18.7534 4.6666Z" fill="#F26958"/>
</svg>
